<?xml version="1.0" encoding="utf-8"?>
<!-- Generator: Adobe Illustrator 25.4.1, SVG Export Plug-In . SVG Version: 6.00 Build 0)  -->
<svg version="1.1" id="ARTWORK" xmlns="http://www.w3.org/2000/svg" xmlns:xlink="http://www.w3.org/1999/xlink" x="0px" y="0px"
	 width="390px" height="71px" viewBox="0 0 390 71" style="enable-background:new 0 0 390 71;" xml:space="preserve">
<style type="text/css">
	.st0{fill:#1D2758;}
	.st1{fill:#1E2758;}
	.st2{fill:#FFFFFF;}
	.st3{fill:#981B1E;}
</style>
<g>
	<g>
		<path class="st0" d="M237.4,36V15.9h10.9v2.5h-8.1v5.8h6.3l0.4,2.5h-6.7v6.8h8.4V36H237.4z"/>
		<path class="st0" d="M251.7,16.3l2.8-0.6l5,7.6l4.8-7.4h3l-6.4,9.5l6.9,10.2l-2.8,0.6l-5.7-8.6l-5.5,8.4h-3l7-10.5L251.7,16.3z"/>
		<path class="st0" d="M271,36V15.9h10.9v2.5h-8.1v5.8h6.3l0.4,2.5h-6.7v6.8h8.4V36H271z"/>
		<path class="st0" d="M293.4,36.4c-5.7,0-9.3-4.2-9.3-10.4c0-6.2,3.7-10.5,9.4-10.5c2.4,0,4.2,0.6,5.7,1.7l-0.4,2.8
			c-1.5-1.1-3.2-2-5.3-2c-4.1,0-6.5,3.1-6.5,7.9s2.5,7.9,6.5,7.9c2.2,0,4.1-0.8,5.7-2l0.4,2.6C297.9,35.6,295.7,36.4,293.4,36.4z"/>
		<path class="st0" d="M310.7,36.4c-4.9,0-7.8-3.1-7.8-8V15.9h2.7v12.2c0,3.5,1.6,5.8,5.1,5.8c3.4,0,5.1-2.1,5.1-5.8V15.9h2.7v12.4
			C318.6,33.3,315.6,36.4,310.7,36.4z"/>
		<path class="st0" d="M330.8,18.4V36h-2.7V18.4h-6.4v-2.5H337l0.4,2.5H330.8z"/>
		<path class="st0" d="M340.6,36V15.9h2.7V36H340.6z"/>
		<path class="st0" d="M356.7,36.1h-2.5l-7.8-19.8l2.7-0.6l6.3,16.8l6.2-16.5h2.9L356.7,36.1z"/>
		<path class="st0" d="M367.7,36V15.9h10.9v2.5h-8.1v5.8h6.3l0.4,2.5h-6.7v6.8h8.4V36H367.7z"/>
		<path class="st0" d="M237.4,65.8V45.6h10.9v2.5h-8.1V54h6.3l0.4,2.5h-6.7v6.8h8.4v2.5H237.4z"/>
		<path class="st0" d="M257.5,65.8h-5.7V45.6h5.8c7,0,10.6,4.1,10.6,10C268.2,61.7,264.4,65.8,257.5,65.8z M257.7,48.1h-3.2v15.2
			h3.1c4.8,0,7.8-2.5,7.8-7.6C265.4,50.6,262.3,48.1,257.7,48.1z"/>
		<path class="st0" d="M279.2,66.1c-4.9,0-7.8-3.1-7.8-8V45.6h2.7v12.2c0,3.5,1.6,5.8,5.1,5.8c3.4,0,5.1-2.1,5.1-5.8V45.6h2.7V58
			C287.1,63.1,284.1,66.1,279.2,66.1z"/>
		<path class="st0" d="M299.5,66.1c-5.7,0-9.3-4.2-9.3-10.4c0-6.2,3.7-10.5,9.4-10.5c2.4,0,4.2,0.6,5.7,1.7l-0.4,2.8
			c-1.5-1.1-3.2-2-5.3-2c-4.1,0-6.5,3.1-6.5,7.9s2.5,7.9,6.5,7.9c2.2,0,4.1-0.8,5.7-2l0.4,2.6C304,65.3,301.8,66.1,299.5,66.1z"/>
		<path class="st0" d="M323.3,66l-2.4-6.2h-8.3l-2.3,6h-2.8l7.9-20.2h2.7l7.8,19.8L323.3,66z M316.7,48.8l-3.2,8.5h6.5L316.7,48.8z"
			/>
		<path class="st0" d="M334.2,48.1v17.6h-2.7V48.1H325v-2.5h15.4l0.4,2.5H334.2z"/>
		<path class="st0" d="M344,65.8V45.6h2.7v20.1H344z"/>
		<path class="st0" d="M360,66.1c-5.7,0-9.3-4.2-9.3-10.4c0-6.2,3.6-10.5,9.3-10.5c5.7,0,9.3,4.2,9.3,10.4S365.7,66.1,360,66.1z
			 M360,47.8c-4,0-6.5,3.1-6.5,7.9s2.5,7.9,6.5,7.9c4,0,6.5-3.1,6.5-7.9S364,47.8,360,47.8z"/>
		<path class="st0" d="M386.9,65.8l-11.1-15.7v15.7h-2.5V45.6h2.5l10.7,15.1V45.6h2.5v20.1H386.9z"/>
	</g>
	<g>
		<polygon class="st1" points="214.4,54.7 49.8,54.7 49.8,53.8 214.4,53.8 		"/>
		<g>
			<path class="st1" d="M52,62.9c0,1.7,0.4,2.9,2.2,2.9c1.6,0,2.5-1.1,2.5-3v-3.3c0-0.2,0-0.4-0.1-0.6c0-0.4-0.5-0.6-1-0.6V58h2.8
				v0.3c-0.6,0-1,0.2-1,0.6c0,0.2-0.1,0.4-0.1,0.6v3.4c0,2.5-1.6,3.5-3.1,3.5c-2.5,0-3.3-1.3-3.3-3.4v-3.5c0-1.1,0-1-1-1.2V58H53
				v0.3c-1.1,0.1-1,0.1-1,1.2L52,62.9L52,62.9L52,62.9z"/>
			<path class="st1" d="M65,66.3c-1.5-1.7-3-3.5-4.4-5.3v4c0,0.2,0,0.3,0,0.5c0,0.3,0.3,0.5,1,0.5v0.2h-2.2V66
				c0.4,0,0.7-0.2,0.8-0.5c0-0.1,0-0.3,0-0.5v-4.3c-0.2-0.3-0.5-0.6-1.1-0.6v-0.2h1.7c1.4,1.7,2.8,3.3,4.1,5h0v-3.8
				c0-0.2,0-0.3,0-0.5c0-0.3-0.3-0.4-1-0.5v-0.2h2.2v0.2c-0.4,0-0.7,0.2-0.8,0.5c0,0.1,0,0.3,0,0.5v5.1L65,66.3L65,66.3L65,66.3z"/>
			<path class="st1" d="M69.7,65.1c0,0.8,0,0.8,0.8,0.9v0.2h-2.4v-0.2c0.8-0.1,0.8,0,0.8-0.9V61c0-0.8,0-0.8-0.8-0.9v-0.2h2.4v0.2
				c-0.8,0.1-0.8,0-0.8,0.9V65.1L69.7,65.1L69.7,65.1z"/>
			<path class="st1" d="M74.4,60.1c-0.5,0-0.9,0.1-0.6,1c0.3,1.1,0.9,2.6,1.4,4c0.6-1.4,1.1-2.8,1.7-4.2c0.2-0.6,0-0.9-0.6-0.9v-0.2
				h2v0.2c-0.3,0-0.6,0.1-0.8,0.5c-0.8,1.9-1.5,3.7-2.3,5.6h-0.5c-0.5-1.6-1.2-3.3-1.7-4.9c-0.3-1-0.6-1.3-1.1-1.3v-0.2h2.5
				L74.4,60.1L74.4,60.1L74.4,60.1z"/>
			<path class="st1" d="M79.6,66c0.8-0.1,0.8,0,0.8-0.9V61c0-0.8,0-0.8-0.8-0.9v-0.2h4.1v1.5h-0.2c-0.1-0.7-0.3-1.2-0.9-1.2h-1.2
				v2.6h0.8c0.6,0,0.8-0.2,0.8-0.8h0.2v2h-0.2c0-0.5-0.2-0.9-0.8-0.9h-0.8v2.1c0,0.8,0.3,0.8,1.2,0.8c1.3,0,1.3-0.4,1.7-1.4h0.2
				l-0.3,1.6h-4.5L79.6,66L79.6,66L79.6,66z"/>
			<path class="st1" d="M85.8,59.9h2.6c0.9,0,1.9,0.5,1.9,1.6c0,0.9-0.6,1.6-1.3,1.9l0.9,1.4c0.4,0.7,1,1.3,1.3,1.5v0.1h-0.9
				c-0.5,0-0.8-1-1.9-2.8h-0.9v1.7c0,0.8,0,0.8,0.8,0.9v0.2h-2.4v-0.2c0.8-0.1,0.8,0,0.8-0.9V61c0-0.8,0-0.8-0.8-0.9L85.8,59.9
				L85.8,59.9L85.8,59.9z M87.4,63.2h0.8c0.8,0,1.2-0.6,1.2-1.6c0-1-0.5-1.3-1.2-1.3h-0.7V63.2L87.4,63.2L87.4,63.2z"/>
			<path class="st1" d="M95.7,61.3c-0.1-0.6-0.4-1.1-1.1-1.1c-0.5,0-1,0.3-1,0.9c0,0.6,0.6,1,1.6,1.7c1,0.7,1.3,1.2,1.3,2
				c0,1.1-1.1,1.7-2.2,1.7c-0.6,0-1.1-0.1-1.6-0.3c0,0-0.1,0-0.1-0.1v-1.3h0.2c0.1,1,0.8,1.4,1.5,1.4c0.6,0,1.2-0.5,1.2-1.2
				c0-0.6-0.3-1.1-1.7-2c-0.5-0.3-1.1-0.7-1.1-1.7c0-0.8,0.9-1.5,2-1.5c0.4,0,0.9,0,1.3,0.2c0,0,0.1,0,0.1,0.1v1.2L95.7,61.3
				L95.7,61.3L95.7,61.3z"/>
			<path class="st1" d="M99.7,65.1c0,0.8,0,0.8,0.8,0.9v0.2H98v-0.2c0.8-0.1,0.8,0,0.8-0.9V61c0-0.8,0-0.8-0.8-0.9v-0.2h2.4v0.2
				c-0.8,0.1-0.8,0-0.8,0.9V65.1L99.7,65.1L99.7,65.1z"/>
			<path class="st1" d="M105,65.1c0,0.8,0,0.8,0.8,0.9v0.2h-2.4v-0.2c0.8-0.1,0.8,0,0.8-0.9v-4.9h-0.8c-0.8,0-1,0.5-1.3,1.1h-0.2
				l0.2-1.4h5l0.2,1.4h-0.2c-0.3-0.6-0.5-1.1-1.3-1.1H105V65.1L105,65.1L105,65.1z"/>
			<path class="st1" d="M109.9,66c0.8-0.1,0.8,0,0.8-0.9v-1.4l-1.4-2.8c-0.3-0.6-0.5-0.8-1-0.8v-0.2h2.3v0.2c-0.7,0-0.6,0.3-0.4,0.8
				l1.1,2.3l1.3-2.3c0.3-0.5,0-0.8-0.5-0.8v-0.2h1.9v0.2c-0.2,0-0.5,0.1-0.7,0.5l-1.5,2.8c-0.1,0.2-0.1,0.4-0.1,0.7v1
				c0,0.8,0,0.8,0.8,0.9v0.2h-2.5V66L109.9,66L109.9,66z"/>
			<path class="st1" d="M118.1,64.1c0-1.6,1.3-3.9,3.3-3.9c1.6,0,1.9,1.1,1.9,2.1c0,1.3-1,4.1-3.3,4.1
				C118.5,66.4,118.1,65.2,118.1,64.1L118.1,64.1L118.1,64.1z M122.2,61.8c0-1.2-0.7-1.3-0.9-1.3c-1.3,0-2.1,2.3-2.1,3.8
				c0,0.6,0.1,1.7,1,1.7C121.5,66.1,122.2,63.8,122.2,61.8L122.2,61.8L122.2,61.8z"/>
			<path class="st1" d="M129.2,60.6l-0.3,0.2h-1.6c-0.6,2.8-1.5,6.5-2.2,8.3h-0.5l1.7-8.3h-1.1l0.1-0.5h1.1c0.6-2.5,2.7-2.8,3.2-2.8
				c0.3,0,0.8,0,1,0.2l-0.1,0.8l-0.3,0.1c-0.2-0.3-0.5-0.7-1-0.7c-0.7,0-1.2,0.5-1.5,1.8l-0.1,0.6h1.7L129.2,60.6L129.2,60.6
				L129.2,60.6z"/>
			<path class="st1" d="M136.5,64.8c0,1.1,0,1,1,1.2v0.3h-3.2V66c1.1-0.1,1-0.1,1-1.2v-5.3c0-1.1,0-1-1-1.2V58h3.1
				c2,0,2.9,0.8,2.9,2.2c0,1.7-1.5,2.6-3.3,2.5v-0.2c1.5,0,2.1-0.9,2.1-2.1c0-1.3-0.6-1.9-2-1.9h-0.7L136.5,64.8L136.5,64.8
				L136.5,64.8z"/>
			<path class="st1" d="M142,66c0.8-0.1,0.8,0,0.8-0.9V61c0-0.8,0-0.8-0.8-0.9v-0.2h4.1v1.5h-0.2c-0.1-0.7-0.3-1.2-0.9-1.2h-1.2v2.6
				h0.8c0.6,0,0.8-0.2,0.8-0.8h0.2v2h-0.2c0-0.5-0.2-0.9-0.8-0.9h-0.8v2.1c0,0.8,0.3,0.8,1.2,0.8c1.3,0,1.3-0.4,1.7-1.4h0.2
				l-0.3,1.6H142L142,66L142,66L142,66z"/>
			<path class="st1" d="M153.9,66.3c-1.5-1.7-3-3.5-4.4-5.3v4c0,0.2,0,0.3,0,0.5c0,0.3,0.3,0.5,1,0.5v0.2h-2.2V66
				c0.4,0,0.7-0.2,0.8-0.5c0-0.1,0-0.3,0-0.5v-4.3c-0.2-0.3-0.5-0.6-1.1-0.6v-0.2h1.7c1.4,1.7,2.8,3.3,4.1,5h0v-3.8
				c0-0.2,0-0.3,0-0.5c0-0.3-0.3-0.4-1-0.5v-0.2h2.2v0.2c-0.4,0-0.7,0.2-0.8,0.5c0,0.1,0,0.3,0,0.5v5.1L153.9,66.3L153.9,66.3
				L153.9,66.3z"/>
			<path class="st1" d="M162.1,66.3c-1.5-1.7-2.9-3.5-4.4-5.3v4c0,0.2,0,0.3,0,0.5c0,0.3,0.3,0.5,1,0.5v0.2h-2.2V66
				c0.4,0,0.7-0.2,0.8-0.5c0-0.1,0-0.3,0-0.5v-4.3c-0.2-0.3-0.5-0.6-1.1-0.6v-0.2h1.7c1.4,1.7,2.8,3.3,4.1,5h0v-3.8
				c0-0.2,0-0.3,0-0.5c0-0.3-0.3-0.4-1-0.5v-0.2h2.2v0.2c-0.4,0-0.7,0.2-0.8,0.5c0,0.1,0,0.3,0,0.5v5.1L162.1,66.3L162.1,66.3
				L162.1,66.3z"/>
			<path class="st1" d="M168,61.3c-0.1-0.6-0.4-1.1-1.1-1.1c-0.5,0-1,0.3-1,0.9c0,0.6,0.6,1,1.6,1.7c1,0.7,1.3,1.2,1.3,2
				c0,1.1-1.1,1.7-2.2,1.7c-0.6,0-1.1-0.1-1.6-0.3c0,0-0.1,0-0.1-0.1v-1.3h0.2c0.1,1,0.8,1.4,1.5,1.4c0.6,0,1.2-0.5,1.2-1.2
				c0-0.6-0.3-1.1-1.7-2c-0.5-0.3-1.1-0.7-1.1-1.7c0-0.8,0.9-1.5,2-1.5c0.4,0,0.9,0,1.3,0.2c0,0,0.1,0,0.1,0.1v1.2L168,61.3
				L168,61.3L168,61.3z"/>
			<path class="st1" d="M171.7,66c0.8-0.1,0.8,0,0.8-0.9v-1.4l-1.4-2.8c-0.3-0.6-0.5-0.8-1-0.8v-0.2h2.3v0.2c-0.7,0-0.6,0.3-0.4,0.8
				l1.1,2.3l1.3-2.3c0.3-0.5,0-0.8-0.5-0.8v-0.2h1.9v0.2c-0.2,0-0.5,0.1-0.7,0.5l-1.5,2.8c-0.1,0.2-0.1,0.4-0.1,0.7v1
				c0,0.8,0,0.8,0.8,0.9v0.2h-2.4L171.7,66L171.7,66L171.7,66z"/>
			<path class="st1" d="M177.3,66c0.8-0.1,0.8,0,0.8-0.9V61c0-0.8,0-0.8-0.8-0.9v-0.2h2.4v0.2c-0.8,0.1-0.8,0-0.8,0.9v4.2
				c0,0.6,0.3,0.7,1.2,0.7c1.3,0,1.3-0.4,1.7-1.4h0.2l-0.3,1.6h-4.5L177.3,66L177.3,66L177.3,66z"/>
			<path class="st1" d="M185.2,60.1c-0.5,0-0.9,0.1-0.6,1c0.3,1.1,0.9,2.6,1.4,4c0.6-1.4,1.1-2.8,1.7-4.2c0.2-0.6,0-0.9-0.6-0.9
				v-0.2h2v0.2c-0.3,0-0.6,0.1-0.8,0.5c-0.8,1.9-1.5,3.7-2.3,5.6h-0.5c-0.6-1.6-1.2-3.3-1.7-4.9c-0.3-1-0.6-1.3-1.1-1.3v-0.2h2.5
				V60.1L185.2,60.1L185.2,60.1z"/>
			<path class="st1" d="M190.5,64.2l-0.4,1.2c-0.1,0.3,0,0.7,0.4,0.7v0.2h-1.7V66c0.2,0,0.5-0.1,0.7-0.4c0.4-0.8,1.5-3.8,2.2-5.8
				h0.5c0.6,1.8,1.6,4.6,1.9,5.5c0.2,0.5,0.3,0.8,0.7,0.8v0.2h-2.1V66c0.6,0,0.6-0.3,0.5-0.7l-0.4-1.2H190.5L190.5,64.2L190.5,64.2z
				 M192.7,63.8l-1-3h0l-1.1,3H192.7L192.7,63.8L192.7,63.8z"/>
			<path class="st1" d="M201.9,66.3c-1.5-1.7-3-3.5-4.4-5.3v4c0,0.2,0,0.3,0,0.5c0,0.3,0.3,0.5,1,0.5v0.2h-2.2V66
				c0.4,0,0.7-0.2,0.8-0.5c0-0.1,0-0.3,0-0.5v-4.3c-0.2-0.3-0.5-0.6-1.1-0.6v-0.2h1.7c1.4,1.7,2.8,3.3,4.1,5h0v-3.8
				c0-0.2,0-0.3,0-0.5c0-0.3-0.3-0.4-1-0.5v-0.2h2.2v0.2c-0.4,0-0.7,0.2-0.8,0.5c0,0.1,0,0.3,0,0.5v5.1L201.9,66.3L201.9,66.3
				L201.9,66.3z"/>
			<path class="st1" d="M206.2,65.1c0,0.8,0,0.8,0.8,0.9v0.2h-2.4v-0.2c0.8-0.1,0.8,0,0.8-0.9V61c0-0.8,0-0.8-0.8-0.9v-0.2h2.4v0.2
				c-0.8,0.1-0.8,0-0.8,0.9V65.1L206.2,65.1L206.2,65.1z"/>
			<path class="st1" d="M210,64.2l-0.4,1.2c-0.1,0.3,0,0.7,0.4,0.7v0.2h-1.7V66c0.2,0,0.5-0.1,0.7-0.4c0.4-0.8,1.5-3.8,2.2-5.8h0.5
				c0.6,1.8,1.6,4.6,1.9,5.5c0.2,0.5,0.3,0.8,0.7,0.8v0.2h-2.1V66c0.6,0,0.6-0.3,0.5-0.7l-0.4-1.2H210L210,64.2L210,64.2z
				 M212.2,63.8l-1-3h0l-1.1,3H212.2L212.2,63.8L212.2,63.8z"/>
		</g>
		<path class="st2" d="M45.2,3H1c0,0,0,21.9,0,22c0,9.6,5.3,16.5,9.8,20.7c4.9,4.5,10.3,7.2,12.1,7.6l0.2,0l0.2,0
			c1.8-0.4,7.2-3,12.1-7.6c4.5-4.1,9.8-11.1,9.8-20.7C45.2,24.8,45.2,3,45.2,3L45.2,3z"/>
		<path class="st3" d="M42.5,12.2L42.5,12.2c0.1,0,0.1,0.1,0.2,0.2c0,0.1,0.1,0.2,0.1,0.2c0,0.1,0,0.2-0.1,0.2
			c0,0.1-0.1,0.1-0.2,0.2c-0.1,0.1-0.2,0.1-0.2,0.3v0.8h-4.6H33v-0.8c0-0.1-0.1-0.2-0.2-0.3c-0.1,0-0.1-0.1-0.2-0.2
			c0-0.1-0.1-0.2-0.1-0.2c0-0.1,0-0.2,0.1-0.2c0-0.1,0.1-0.1,0.2-0.2c0.1-0.1,0.2-0.1,0.2-0.3V9.4c0-0.1-0.1-0.2-0.2-0.3
			c-0.1,0-0.1-0.1-0.2-0.2c0-0.1-0.1-0.2-0.1-0.2c0-0.1,0-0.2,0.1-0.2c0-0.1,0.1-0.1,0.2-0.2C32.9,8.2,33,8.1,33,8V7.2h0.1
			c0.5,0,1,0,1.4-0.1c0.1,0,0.3-0.1,0.4-0.2c0.3-0.2,0.6-0.4,1.1-0.4c0.4,0,0.7,0.1,1.1,0.3c0.2,0.1,0.4,0.2,0.6,0.2h0.1
			c0.1,0,0.4-0.1,0.6-0.2c0.3-0.1,0.7-0.3,1.1-0.3c0.5,0,0.8,0.2,1.1,0.4C40.5,6.9,40.7,7,40.8,7c0.3,0.1,0.8,0.1,1.4,0.1h0.1V8
			c0,0.1,0.1,0.2,0.2,0.3c0,0,0.1,0.1,0.2,0.2c0,0.1,0.1,0.2,0.1,0.2c0,0.1,0,0.2-0.1,0.2c0,0.1-0.1,0.1-0.2,0.2
			c-0.1,0.1-0.2,0.1-0.2,0.3v2.6C42.3,12.1,42.4,12.1,42.5,12.2L42.5,12.2z M31.1,13.6C30.4,14.7,29,15,29,15
			c-0.3,0-0.5,0.1-0.8,0.1l0,0c-1.4,0-2.8-0.6-4.1-1.3c-0.1-0.1-0.3-0.2-0.5-0.3c-0.9-0.5-2.1-1.1-3.1-1.1c-0.3,0-0.6,0-0.8,0.2l0,0
			v0c0,0.1,0,0.3-0.1,0.4c-0.2,0.4-0.7,0.9-1,1.1c-0.6,0.4-1.3,0.9-2.2,0.9c-0.1,0-0.3,0-0.4,0c-0.2,0-0.3-0.1-0.4-0.3
			c0-0.1-0.1-0.1-0.1-0.2c0-0.1,0-0.1,0-0.2v0l0,0c-0.3-0.1-0.6-0.3-0.6-0.6c0-0.2,0.1-0.4,0.3-0.6c0.2-0.3,0.4-0.5,0.1-0.8
			c0,0-0.1,0-0.1-0.1c0,0-0.1-0.1-0.1-0.1c-0.3-0.3-0.1-1,0-1.4v0c0.1-0.4,0.3-0.9,0.5-1.3c0.3-0.6,0.7-1.4,1.3-1.8c0,0,0,0,0,0
			c0,0,0,0,0,0c0,0,0.1,0.1,0.1,0.2L17,7.7l0-0.2c0.1-0.5,0.4-0.8,0.7-0.9c0.4-0.1,0.7,0,0.9,0.2l0.1,0l0-0.1
			c0.1-0.2,0.3-0.4,0.7-0.4c0.4,0,0.7,0.2,0.8,0.4l0,0l0,0c0.2-0.1,0.6-0.5,1-0.4c0.4,0,0.6,0.4,0.6,0.6L22,7l0.1,0
			c0.2-0.1,0.6-0.2,0.9,0c0.2,0.1,0.2,0.4,0.2,0.6v0.1l0.1,0c0.3,0,0.8-0.1,1.1,0.2c0.2,0.2,0.2,0.5,0.2,0.8l0,0.1l0.1,0
			c0.2,0,0.5,0,0.7,0.3c0.1,0.2,0.1,0.4,0,0.6v0.1l0.1,0c0.1,0,0.4,0.1,0.4,0.3c0,0.1,0,0.4,0,0.7l0,0.1l0.1,0
			c0.1,0,0.3,0.2,0.4,0.4c0.1,0.2,0.1,0.5,0,0.8l0,0l0,0c0.3,0.3,0.6,0.5,0.9,0.7c0.6,0.4,1.6,0.7,2.2,0.1c0.2-0.2,0.3-0.6,0.3-0.9
			c-0.1-0.3-0.3-0.5-0.6-0.6c-0.5-0.1-0.9,0.4-1.2,0.8c0,0,0,0,0,0c0,0,0,0,0,0c-0.3-0.7-0.3-1.3,0-1.7c0.2-0.4,0.7-0.6,1.2-0.7h0.1
			V9.8c0-0.8,0.2-1.4,0.6-1.8c0.2-0.2,0.7-0.5,1.4-0.4c0,0,0,0,0,0s0,0,0,0c-0.5,1.3-0.4,1.8-0.1,2.9c0,0.1,0,0.2,0.1,0.3l0,0
			C31.6,12,31.6,12.9,31.1,13.6L31.1,13.6z M13.4,12.2L13.4,12.2c0.1,0,0.1,0.1,0.2,0.2c0,0.1,0.1,0.2,0.1,0.2c0,0.1,0,0.2-0.1,0.2
			c0,0.1-0.1,0.1-0.2,0.2c-0.1,0.1-0.2,0.1-0.2,0.3v0.8H8.5H3.9v-0.8c0-0.1-0.1-0.2-0.2-0.3c-0.1,0-0.1-0.1-0.2-0.2
			s-0.1-0.2-0.1-0.2c0-0.1,0-0.2,0.1-0.2s0.1-0.1,0.2-0.2c0.1-0.1,0.2-0.1,0.2-0.3V9.4c0-0.1-0.1-0.2-0.2-0.3C3.6,9,3.6,9,3.5,8.9
			S3.4,8.8,3.4,8.7c0-0.1,0-0.2,0.1-0.2s0.1-0.1,0.2-0.2C3.8,8.2,3.9,8.1,3.9,8V7.2H4c0.5,0,1,0,1.4-0.1c0.1,0,0.3-0.1,0.4-0.2
			C6,6.6,6.4,6.4,6.9,6.4c0.4,0,0.7,0.1,1.1,0.3c0.2,0.1,0.4,0.2,0.6,0.2h0.1c0.1,0,0.4-0.1,0.6-0.2c0.3-0.1,0.7-0.3,1.1-0.3
			c0.5,0,0.8,0.2,1.1,0.4C11.4,6.9,11.6,7,11.7,7c0.3,0.1,0.8,0.1,1.4,0.1h0.1V8c0,0.1,0.1,0.2,0.2,0.3c0,0,0.1,0.1,0.2,0.2
			s0.1,0.2,0.1,0.2c0,0.1,0,0.2-0.1,0.2S13.4,9,13.4,9.1c-0.1,0.1-0.2,0.1-0.2,0.3v2.6C13.2,12.1,13.3,12.1,13.4,12.2L13.4,12.2z
			 M2.1,4.2c0,0,0,12.8,0,12.7h42c0-6,0-12.7,0-12.7L2.1,4.2L2.1,4.2z"/>
		<path class="st1" d="M16.6,11.7c0.1,0,0.3,0,0.4,0.1c0,0,0.1,0.1,0.1,0.1c0.1,0.1,0.1,0.2,0,0.3c-0.1,0.1-0.2,0.2-0.3,0.2
			c-0.2,0.1-0.5,0.3-0.7,0.2c-0.1-0.1,0.1-0.2,0-0.6C16.1,11.8,16.4,11.7,16.6,11.7L16.6,11.7z"/>
		<path class="st1" d="M16.6,7.5c-0.5,0.4-0.8,1.1-1.1,1.7c-0.2,0.5-0.4,0.9-0.5,1.3v0c-0.1,0.3-0.2,0.9,0,1.2c0,0,0.1,0,0.1,0.1
			c0,0,0.1,0,0.1,0.1c0.5,0.4,0.1,0.8-0.1,1.1c-0.1,0.2-0.3,0.3-0.3,0.4c0,0.3,0.4,0.4,0.5,0.5c0,0,0.1,0,0.1,0.1c0,0.1,0,0.2,0,0.2
			c0,0.1,0,0.1,0.1,0.2c0.1,0.1,0.2,0.2,0.3,0.2c0.1,0,0.2,0,0.3,0c0.9,0,1.6-0.4,2.1-0.8c0.3-0.2,0.8-0.7,0.9-1c0-0.1,0-0.2,0-0.3
			l-0.6-0.1c0,0,0,0,0,0c-0.1,0-0.1-0.1-0.1-0.1c0-0.1,0.1-0.2,0.3-0.3c0.1,0,0.1-0.1,0.2-0.1c0.3-0.2,0.6-0.4,0.7-0.5
			c-0.2-0.2-0.3-0.4-0.4-0.6c-0.1-0.1-0.2-0.2-0.2-0.3c-0.3-0.3-0.8-0.5-1.3-0.2c-0.2,0.1-0.3,0.2-0.5,0.4c-0.1,0.1-0.3,0.2-0.4,0.3
			c0,0-0.1,0-0.2,0c0,0,0-0.1,0-0.2c0,0,0,0,0.1-0.1c0.2-0.2,0.6-0.6,0.6-0.9C17.5,9.1,16.9,7.9,16.6,7.5L16.6,7.5z M20.4,12.2
			c1,0,2.2,0.6,3.2,1.2c0.2,0.1,0.3,0.2,0.5,0.3c1.6,0.8,3.2,1.5,4.8,1.2c0,0,1.4-0.3,2-1.4c0.4-0.7,0.5-1.5,0.2-2.5
			c0-0.1,0-0.2-0.1-0.3c-0.3-1-0.4-1.6,0-2.9c-0.6,0-0.9,0.1-1.1,0.3c-0.4,0.3-0.5,0.9-0.5,1.8c0,0.1,0,0.1-0.1,0.1
			c-0.5,0-1,0.3-1.2,0.6c-0.2,0.3-0.2,0.8,0,1.3c0.2-0.3,0.7-0.8,1.3-0.7c0.3,0.1,0.6,0.3,0.7,0.7c0.1,0.4,0,0.9-0.3,1.1
			C29,13.8,28,13.5,27.3,13c-0.8-0.6-1.6-1.3-2.4-2.2c-0.1-0.2-0.3-0.3-0.4-0.5c-0.5-0.6-1.1-1.2-1.7-1.7c-1-0.8-2.2-0.9-3-0.9
			c-0.6,0-1.7,0.2-2.4,0.6c0.2,0.5,0.4,1,0.4,1.5c0,0.1,0,0.1,0,0.2c0.5-0.3,1.2-0.1,1.6,0.3c0.1,0.1,0.2,0.2,0.3,0.4
			c0.1,0.2,0.3,0.5,0.5,0.6c0,0,0,0.1,0,0.1c0,0,0,0.1,0,0.1c0,0-0.3,0.2-0.8,0.6c-0.1,0-0.1,0.1-0.2,0.1l0,0l0.4,0.1
			C19.7,12.2,20.1,12.2,20.4,12.2L20.4,12.2z M28.1,15.1c-1.5,0-2.8-0.6-4.2-1.3c-0.1-0.1-0.3-0.2-0.5-0.3c-1.1-0.6-2.8-1.5-3.9-0.9
			c0,0.1,0,0.3-0.1,0.4c-0.2,0.4-0.7,0.9-1,1.1c-0.6,0.4-1.4,0.9-2.3,0.9c-0.1,0-0.3,0-0.4-0.1c-0.2,0-0.3-0.2-0.4-0.3
			c0-0.1-0.1-0.1-0.1-0.2c0-0.1,0-0.1,0-0.2c-0.4-0.1-0.6-0.3-0.6-0.7c0-0.2,0.2-0.4,0.3-0.6c0.3-0.3,0.4-0.5,0.1-0.7
			c0,0,0,0-0.1-0.1c0,0-0.1-0.1-0.1-0.1c-0.3-0.3-0.1-1,0-1.4v0c0.1-0.4,0.3-0.9,0.5-1.4c0.3-0.7,0.7-1.4,1.3-1.9c0,0,0.1,0,0.1,0
			c0,0,0.1,0,0.1,0c0,0,0.2,0.4,0.5,0.8c1-0.6,2.4-0.6,2.5-0.7c0.9,0,2.1,0.1,3.2,0.9c0.7,0.5,1.2,1.1,1.7,1.8
			c0.1,0.1,0.3,0.3,0.4,0.5c0.8,0.9,1.6,1.6,2.4,2.2c0.6,0.4,1.5,0.7,2.1,0.1c0.2-0.2,0.3-0.5,0.2-0.8c-0.1-0.3-0.2-0.5-0.5-0.5
			c-0.4-0.1-0.8,0.3-1.1,0.8c0,0-0.1,0.1-0.1,0c0,0-0.1,0-0.1-0.1c-0.3-0.7-0.3-1.3,0-1.8c0.2-0.4,0.7-0.7,1.2-0.8
			c0-0.9,0.2-1.5,0.6-1.9c0.2-0.2,0.7-0.5,1.5-0.4c0,0,0.1,0,0.1,0.1c0,0,0,0.1,0,0.1c-0.5,1.3-0.4,1.8-0.1,2.9c0,0.1,0,0.2,0.1,0.3
			c0.3,1.1,0.2,2-0.3,2.7c-0.7,1.2-2.1,1.5-2.2,1.5C28.7,15.1,28.4,15.1,28.1,15.1L28.1,15.1z"/>
		<path class="st1" d="M15.7,14.2c-0.1,0-0.2,0-0.4,0c-0.1,0-0.1-0.1-0.1-0.1s0.1-0.1,0.1-0.1c0.6,0.1,1.5,0,2.3-0.8
			c0,0,0.1,0,0.2,0c0,0,0,0.1,0,0.2C17.3,13.9,16.5,14.2,15.7,14.2L15.7,14.2z"/>
		<path class="st1" d="M26.4,12.2C26.4,12.2,26.4,12.2,26.4,12.2c-0.1,0-0.1-0.1-0.1-0.2c0.1-0.3,0.1-0.6,0-0.8
			c-0.1-0.3-0.5-0.3-0.5-0.3c0,0-0.1,0-0.1-0.1c0,0,0-0.1,0-0.1c0-0.1,0.1-0.5,0.1-0.7c0-0.1-0.3-0.2-0.4-0.2c0,0-0.1,0-0.1,0
			c0,0,0-0.1,0-0.1c0-0.1,0.1-0.4,0-0.5C25.2,8.8,24.7,9,24.7,9c0,0-0.1,0-0.1,0c0,0,0-0.1,0-0.1c0,0,0.1-0.5-0.1-0.8
			c-0.3-0.3-1.1-0.1-1.1-0.1c0,0-0.1,0-0.1,0c0,0,0-0.1,0-0.1c0,0,0.1-0.4-0.1-0.6c-0.4-0.3-0.9,0.1-0.9,0.1c0,0-0.1,0-0.1,0
			c0,0-0.1,0-0.1-0.1c0,0-0.1-0.5-0.5-0.6c-0.5-0.1-1,0.4-1,0.4c0,0,0,0-0.1,0c0,0-0.1,0-0.1,0c0,0-0.3-0.4-0.8-0.4
			c-0.4,0-0.6,0.4-0.6,0.4c0,0,0,0.1-0.1,0.1c0,0-0.1,0-0.1,0c0,0-0.4-0.4-0.8-0.2c-0.5,0.2-0.7,0.8-0.7,1.1l0,0C17.1,8,17,8,17,8
			c-0.1,0-0.1-0.1-0.1-0.1l0,0c0-0.2,0.2-1,0.9-1.2c0.4-0.1,0.8,0,1,0.2c0.1-0.2,0.3-0.4,0.7-0.4c0.4,0,0.7,0.3,0.9,0.4
			c0.2-0.2,0.6-0.5,1.1-0.4c0.4,0,0.6,0.4,0.7,0.6c0.2-0.1,0.6-0.2,1,0c0.3,0.2,0.3,0.5,0.3,0.7c0.3,0,0.8-0.1,1.1,0.2
			c0.3,0.3,0.3,0.6,0.2,0.8c0.2,0,0.6,0,0.8,0.3c0.1,0.2,0.1,0.5,0,0.6c0.2,0,0.4,0.1,0.5,0.4c0.1,0.2,0,0.5,0,0.7
			c0.1,0,0.4,0.2,0.5,0.4c0.1,0.3,0.1,0.6,0,1C26.5,12.2,26.5,12.2,26.4,12.2L26.4,12.2z"/>
		<path class="st1" d="M25.8,14L25.8,14c-0.1,0-0.1-0.1-0.1-0.1c0-0.5-0.2-0.6-0.5-0.6c-0.1,0-0.1,0-0.2-0.1
			c-0.1-0.1-0.1-0.2-0.1-0.4c0-0.2,0-0.4-0.1-0.5c-0.2-0.2-0.7-0.1-0.7-0.1c0,0-0.1,0-0.1,0c0,0,0-0.1,0-0.1c0,0,0.1-0.5-0.2-0.8
			C23.4,11,22.9,11,22.8,11c0,0-0.1,0-0.1,0c0,0,0-0.1,0-0.1c0-0.3-0.1-0.6-0.3-0.7c-0.2-0.1-0.4-0.1-0.6,0
			c-0.5,0.3-0.7,0.3-1.3-0.1c-0.2-0.1-0.3-0.2-0.5-0.1c-0.2,0-0.4,0.2-0.5,0.5c0,0-0.1,0.1-0.2,0c0,0-0.1-0.1,0-0.2
			c0.2-0.3,0.4-0.6,0.7-0.7c0.2,0,0.5,0,0.7,0.1c0.5,0.3,0.6,0.3,1,0.1c0.3-0.1,0.6-0.1,0.9,0c0.3,0.2,0.4,0.5,0.4,0.8
			c0.2,0,0.6,0,0.9,0.2c0.3,0.2,0.3,0.6,0.3,0.8c0.2,0,0.6,0,0.8,0.2c0.2,0.2,0.2,0.5,0.2,0.7c0,0.1,0,0.2,0,0.2c0,0,0.1,0,0.1,0
			c0.2,0.1,0.7,0.2,0.6,0.9C25.9,13.9,25.9,14,25.8,14L25.8,14z"/>
		<path class="st1" d="M13.4,12.7c0,0,0,0.1,0,0.1c0,0-0.1,0.1-0.1,0.1C13.1,13,13,13.1,13,13.3v0.6H8.5l0,0H4.1v-0.6
			c0-0.2-0.1-0.3-0.3-0.4c0,0-0.1-0.1-0.1-0.1c0,0,0-0.1,0-0.1l0,0l0,0c0,0,0-0.1,0-0.1c0,0,0.1-0.1,0.1-0.1
			c0.1-0.1,0.3-0.2,0.3-0.4V9.4c0-0.2-0.1-0.3-0.3-0.4c0,0-0.1-0.1-0.1-0.1c0,0,0-0.1,0-0.1l0,0l0,0c0,0,0-0.1,0-0.1
			s0.1-0.1,0.1-0.1C3.9,8.3,4.1,8.2,4.1,8V7.4c0,0,0,0,0,0c0.2,0,0.5,0,0.7,0v5.9H8c0,0.2,0.3,0.4,0.5,0.4c0.2,0,0.5-0.2,0.5-0.4
			h3.2l0,0V7.3c0.2,0,0.4,0,0.7,0h0V8c0,0.2,0.1,0.3,0.3,0.4c0,0,0.1,0.1,0.1,0.1c0,0,0,0.1,0,0.1l0,0l0,0c0,0,0,0.1,0,0.1
			c0,0-0.1,0.1-0.1,0.1C13.1,9,13,9.1,13,9.3v2.6c0,0.2,0.1,0.3,0.3,0.4c0,0,0.1,0.1,0.1,0.1C13.4,12.5,13.4,12.6,13.4,12.7
			L13.4,12.7L13.4,12.7L13.4,12.7z M5.5,7.2C5.6,7.1,5.8,7,5.9,6.9c0.3-0.2,0.5-0.3,1-0.3c0.3,0,0.7,0.1,1,0.2C8,6.9,8.2,7,8.4,7
			v5.1h0c-0.2,0-0.6,0.1-1,0.3c-0.1,0-0.3,0.1-0.4,0.1c-0.4,0.1-0.8,0.1-1.2,0.1c-0.2,0-0.5,0-0.7,0V7.3C5.2,7.3,5.3,7.2,5.5,7.2
			L5.5,7.2z M9.2,6.9c0.3-0.1,0.6-0.2,1-0.2c0.4,0,0.7,0.2,1,0.3c0.1,0.1,0.3,0.2,0.4,0.2c0.1,0,0.2,0.1,0.4,0.1v5.4
			c-0.2,0-0.5,0-0.7,0c-0.4,0-0.8,0-1.2-0.1c-0.1,0-0.3-0.1-0.4-0.1c-0.4-0.1-0.8-0.2-1-0.3c0,0,0,0,0,0V7C8.9,7,9.1,6.9,9.2,6.9
			L9.2,6.9z M13.4,12.2c-0.1-0.1-0.2-0.1-0.2-0.2V9.4c0-0.1,0-0.1,0.2-0.2c0.1,0,0.1-0.1,0.2-0.2c0-0.1,0.1-0.2,0.1-0.3
			s0-0.2-0.1-0.3c0-0.1-0.1-0.1-0.2-0.2c-0.1-0.1-0.2-0.1-0.2-0.2V7h-0.2l0,0c-0.5,0-1,0-1.3-0.1c-0.1,0-0.2-0.1-0.4-0.2
			c-0.3-0.2-0.6-0.4-1.1-0.4c-0.4,0-0.8,0.1-1.1,0.3C8.9,6.7,8.7,6.7,8.6,6.7h0l0,0l0,0l0,0h0C8.4,6.7,8.2,6.7,8,6.6
			C7.6,6.4,7.3,6.3,6.9,6.3C6.4,6.3,6,6.5,5.7,6.7C5.6,6.8,5.5,6.8,5.4,6.9C5.1,7,4.5,7,4.1,7l0,0H3.9V8c0,0.1,0,0.1-0.2,0.2
			c-0.1,0-0.1,0.1-0.2,0.2c0,0.1-0.1,0.2-0.1,0.3c0,0.1,0,0.2,0.1,0.3c0,0.1,0.1,0.1,0.2,0.2c0.1,0.1,0.2,0.1,0.2,0.2V12
			c0,0.1,0,0.1-0.2,0.2c-0.1,0-0.1,0.1-0.2,0.2c0,0.1-0.1,0.2-0.1,0.3c0,0.1,0,0.2,0.1,0.3c0,0.1,0.1,0.1,0.2,0.2
			c0.1,0.1,0.2,0.1,0.2,0.2v0.9l0,0l0,0l0,0h4.7h4.7l0,0l0,0l0,0v-0.9c0-0.1,0-0.1,0.2-0.2c0.1,0,0.1-0.1,0.2-0.2
			c0-0.1,0.1-0.2,0.1-0.3c0-0.1,0-0.2-0.1-0.3C13.6,12.3,13.5,12.2,13.4,12.2L13.4,12.2z"/>
		<path class="st1" d="M42.5,12.7c0,0,0,0.1,0,0.1c0,0-0.1,0.1-0.1,0.1c-0.1,0.1-0.3,0.2-0.3,0.4v0.6h-4.4l0,0h-4.4v-0.6
			c0-0.2-0.1-0.3-0.3-0.4c0,0-0.1-0.1-0.1-0.1c0,0,0-0.1,0-0.1l0,0l0,0c0,0,0-0.1,0-0.1c0,0,0.1-0.1,0.1-0.1
			c0.1-0.1,0.3-0.2,0.3-0.4V9.4c0-0.2-0.1-0.3-0.3-0.4c0,0-0.1-0.1-0.1-0.1c0,0,0-0.1,0-0.1l0,0l0,0c0,0,0-0.1,0-0.1
			s0.1-0.1,0.1-0.1C33,8.3,33.2,8.2,33.2,8V7.4c0,0,0,0,0,0c0.2,0,0.5,0,0.7,0v5.9h3.2c0,0.2,0.3,0.4,0.5,0.4c0.2,0,0.5-0.2,0.5-0.4
			h3.2l0,0V7.3c0.2,0,0.4,0,0.7,0h0V8c0,0.2,0.1,0.3,0.3,0.4c0,0,0.1,0.1,0.1,0.1c0,0,0,0.1,0,0.1l0,0l0,0c0,0,0,0.1,0,0.1
			c0,0-0.1,0.1-0.1,0.1c-0.1,0.1-0.3,0.2-0.3,0.4v2.6c0,0.2,0.1,0.3,0.3,0.4c0,0,0.1,0.1,0.1,0.1C42.5,12.5,42.5,12.6,42.5,12.7
			L42.5,12.7L42.5,12.7L42.5,12.7z M34.5,7.2C34.7,7.1,34.8,7,35,6.9c0.3-0.2,0.5-0.3,1-0.3c0.3,0,0.7,0.1,1,0.2
			C37.1,6.9,37.3,7,37.5,7v5.1h0c-0.2,0-0.6,0.1-1,0.3c-0.1,0-0.3,0.1-0.4,0.1c-0.4,0.1-0.8,0.1-1.2,0.1c-0.2,0-0.5,0-0.7,0V7.3
			C34.3,7.3,34.4,7.2,34.5,7.2L34.5,7.2z M38.3,6.9c0.3-0.1,0.6-0.2,1-0.2c0.4,0,0.7,0.2,1,0.3c0.1,0.1,0.3,0.2,0.4,0.2
			c0.1,0,0.2,0.1,0.4,0.1v5.4c-0.2,0-0.5,0-0.7,0c-0.4,0-0.8,0-1.2-0.1c-0.1,0-0.3-0.1-0.4-0.1c-0.4-0.1-0.8-0.2-1-0.3c0,0,0,0,0,0
			V7C38,7,38.1,6.9,38.3,6.9L38.3,6.9z M42.5,12.2c-0.1-0.1-0.2-0.1-0.2-0.2V9.4c0-0.1,0-0.1,0.2-0.2c0.1,0,0.1-0.1,0.2-0.2
			s0.1-0.2,0.1-0.3s0-0.2-0.1-0.3c0-0.1-0.1-0.1-0.2-0.2c-0.1-0.1-0.2-0.1-0.2-0.2V7h-0.2l0,0c-0.5,0-1,0-1.3-0.1
			c-0.1,0-0.2-0.1-0.4-0.2c-0.3-0.2-0.6-0.4-1.1-0.4c-0.4,0-0.8,0.1-1.1,0.3c-0.2,0.1-0.4,0.2-0.6,0.2h0l0,0l0,0l0,0h0
			c-0.1,0-0.3-0.1-0.6-0.2c-0.3-0.1-0.7-0.3-1.1-0.3c-0.5,0-0.8,0.2-1.1,0.4c-0.1,0.1-0.2,0.1-0.4,0.2C34.1,7,33.6,7,33.2,7l0,0H33
			V8c0,0.1,0,0.1-0.2,0.2c-0.1,0-0.1,0.1-0.2,0.2c0,0.1-0.1,0.2-0.1,0.3c0,0.1,0,0.2,0.1,0.3c0,0.1,0.1,0.1,0.2,0.2
			C32.9,9.2,33,9.3,33,9.4V12c0,0.1,0,0.1-0.2,0.2c-0.1,0-0.1,0.1-0.2,0.2c0,0.1-0.1,0.2-0.1,0.3c0,0.1,0,0.2,0.1,0.3
			c0,0.1,0.1,0.1,0.2,0.2c0.1,0.1,0.2,0.1,0.2,0.2v0.9l0,0l0,0l0,0h4.7h4.7l0,0l0,0l0,0v-0.9c0-0.1,0-0.1,0.2-0.2
			c0.1,0,0.1-0.1,0.2-0.2c0-0.1,0.1-0.2,0.1-0.3c0-0.1,0-0.2-0.1-0.3C42.7,12.3,42.6,12.2,42.5,12.2L42.5,12.2z"/>
		<path class="st1" d="M41.4,35.4L23.1,17.8L4.8,35.4C3.4,32.4,2.4,29,2.4,25c0-0.1,0-3.7,0-7.8h41.3c0,4.1,0,7.7,0,7.8
			C43.8,29,42.8,32.4,41.4,35.4L41.4,35.4z M35.6,37.3c-1.4,1.4-3.7,1.4-5.1,0c-1.4-1.4-1.4-3.7,0-5.1c1.4-1.4,3.7-1.4,5.1,0
			C37,33.5,37,35.8,35.6,37.3L35.6,37.3z M19.5,25.6c0-2,1.6-3.6,3.6-3.6s3.6,1.6,3.6,3.6s-1.6,3.6-3.6,3.6
			C21.1,29.3,19.5,27.7,19.5,25.6L19.5,25.6z M34.5,44.6c-4.9,4.6-10,6.8-11.4,7.2c-1.4-0.3-6.4-2.6-11.4-7.2
			c-0.1-0.1-0.2-0.2-0.4-0.3l11.7-12.4l11.7,12.4C34.7,44.4,34.6,44.5,34.5,44.6L34.5,44.6z M10.6,37.3c-1.4-1.4-1.4-3.7,0-5.1
			c1.4-1.4,3.7-1.4,5.1,0c1.4,1.4,1.4,3.7,0,5.1C14.4,38.7,12,38.7,10.6,37.3L10.6,37.3z M43.8,4.4c0,1.4,0,7.1,0,12.2H2.4
			c0-5.1,0-10.8,0-12.2H43.8L43.8,4.4z M44.3,3.8H1.8c0,0,0,20.9,0,21.2c0,9.3,5.1,16,9.5,20.1c4.7,4.4,10.1,7,11.7,7.4h0h0
			c1.7-0.4,7-3,11.7-7.4c4.3-4,9.5-10.8,9.5-20.1C44.3,24.8,44.3,3.8,44.3,3.8L44.3,3.8z"/>
		<path class="st1" d="M130.8,33.1v-6.8c-2.2,1-7.9,2.3-7.9,5.3c0,2,1.5,3.6,3.6,3.6C128.3,35.1,129.4,34.1,130.8,33.1L130.8,33.1
			L130.8,33.1L130.8,33.1z M130.9,25v-5.2c0-1.9-1.2-2.4-3.1-2.4c-1.8,0-4.3,1.2-4.3,2.2c0,0.3,0.1,0.6,0.1,1.1
			c0,1.8-0.5,3.1-2.6,3.1c-0.9,0-1.5-0.9-1.5-1.6c0-1.1,0.7-2.1,1.8-2.9c2.2-1.8,5.8-3.3,8.7-3.3c3,0,4.6,1.8,4.6,4.7v12.9
			c0,0.8,0,2.2,1.1,2.2c0.8,0,1.2-1,1.4-1.6h0.8c-0.2,2.3-1.2,3.7-3.6,3.7c-1.8,0-3.4-1.6-3.4-3.3c-2.3,1.7-3.9,3.3-6.9,3.3
			c-2.3,0-4.4-1.8-4.4-4.1C119.6,28.3,126.9,26.7,130.9,25L130.9,25L130.9,25L130.9,25z"/>
		<path class="st1" d="M173.6,26.8c0,3.7,1.4,9.8,6.2,9.8c4.7,0,6.3-4.9,6.3-8.6c0-4.1-0.6-11.1-6.2-11.1
			C175.1,16.9,173.6,23.2,173.6,26.8L173.6,26.8L173.6,26.8L173.6,26.8z M169.5,26.6c0-5.8,4.2-10.8,10.3-10.8
			c6.4,0,10.6,4.8,10.6,10.9c0,6.2-4.1,10.9-10.5,10.9C173.2,37.6,169.5,32.7,169.5,26.6L169.5,26.6L169.5,26.6L169.5,26.6z"/>
		<path class="st1" d="M49.8,5V3.9H61V5c-2.1,0-2.9,0-2.9,1.3c0,0,0,0.4,0.2,0.9l6.7,22.9l9.5-27.3h0.8l8.3,26.9
			c0,0,6.5-19.7,6.5-22.5c0-2.2-1.4-2.1-3.2-2.2V3.9h6.9c3,0,6.1-1,7.9-2.1v17.4c2.1-1.9,3.9-3.4,7-3.4c2.3,0,4.4,1,5.5,2.9
			c1,1.7,1.2,3.3,1.2,5.1v9.7c0,2.5,0.6,2.5,2.8,2.6v0.9H109v-0.9c2-0.1,2.7-0.1,2.7-2.6v-9.7c0-1.5,0-2.2-0.7-3.7
			c-0.8-1.4-2.2-2.7-4-2.4c-2.7,0.4-3.8,1.7-5.2,3.1v12.7c0,2.5,0.6,2.5,2.7,2.6v0.9h-9.5v-0.9c2.2-0.1,2.9-0.1,2.9-2.6V5.3
			c0,0-0.8,0-1.8,0c-3.8,0.2-3.9,3.1-5.1,6.5l-8.5,25.8h-0.9l-8.4-25.9l-9.7,25.9h-0.8L53.8,9.2c-0.5-1.5-0.8-2.7-1.6-3.6
			C51.8,5.3,51.8,5,49.8,5L49.8,5L49.8,5L49.8,5z"/>
		<path class="st1" d="M200.2,37.1v-0.9c-2.1-0.1-2.8-0.1-2.8-2.6V22.2c0-2.2,3-4.2,5.1-4.2c3.2,0,4.9,2,4.9,5v10.6
			c0,2.5-0.6,2.5-2.9,2.6v0.9h9.8v-0.9c-1.7-0.1-3-0.1-3-2.6V22.2c0-3.6-3.6-6.3-7.2-6.3c-3.1,0-4.7,1.4-6.7,3.5v-3.5
			c-2.1,0.8-4.4,1.9-6.7,2.2v0.8c2.1,0.2,2.8,0.9,2.8,2.7v12.1c0,2.5-0.6,2.5-2.9,2.6v0.9H200.2L200.2,37.1L200.2,37.1L200.2,37.1z"
			/>
		<path class="st1" d="M148.8,37.1v-0.9c-2.5-0.1-3.2-0.1-3.2-2.6V20.8c0-0.8,1.3-2,2.7-2c1.3,0,1.5,1.5,3.1,1.5
			c2,0,2.4-1.1,2.4-2.5c0-1.5-1.6-2.3-3.4-2.3c-2.1,0-3.8,1.8-4.9,3.5v-3.3c-2.2,1-4.6,2-6.9,2.3v0.8c2.2,0.2,3.1,0.7,3.1,2.6v12.2
			c0,2.5-0.6,2.5-2.8,2.6v0.9L148.8,37.1L148.8,37.1L148.8,37.1L148.8,37.1z"/>
		<path class="st1" d="M169.4,17l0.7-2.6h-8.5v-4.3h-0.5c-2,2.3-3.9,4.3-6.2,6.4V17h2.7v14.5c0,3.4,1.6,6.3,5.3,6.3
			c3.2,0,5.6-2.3,6.9-3.9l-0.6-0.8c-1.2,1.3-2.7,2.1-4.1,2.1c-2.8,0-3.6-1.5-3.6-4.2V17H169.4L169.4,17L169.4,17L169.4,17z"/>
		<g>
			<path class="st0" d="M51.5,46.5l-0.4,1.2c-0.1,0.3,0.1,0.6,0.4,0.6v0.2H50v-0.2c0.2,0,0.5-0.2,0.6-0.4c0.4-0.8,1.4-3.7,2.2-5.7
				h0.5c0.6,1.8,1.5,4.5,1.8,5.3c0.2,0.5,0.3,0.8,0.7,0.8v0.2h-2.1v-0.2c0.6,0,0.6-0.3,0.5-0.7l-0.4-1.1H51.5z M53.7,46.1l-0.9-2.9
				h0l-1.1,2.9H53.7z"/>
			<path class="st0" d="M58.5,44.8c-0.1,0-0.2,0-0.3,0c-0.4,0-0.4,0.6-0.4,1.2v1.4c0,0.3,0,0.4,0,0.6c0,0.2,0.4,0.2,0.8,0.2v0.2
				h-2.4v-0.2c0.8-0.1,0.7-0.1,0.7-0.9V45c0-0.4-0.3-0.4-0.7-0.4v-0.2c0.5,0,1.1-0.1,1.5-0.4l0,0v0.8l0.5-0.5
				c0.2-0.2,0.3-0.3,0.5-0.3c0.1,0,0.2,0,0.3,0.3l0.3,0.5c0,0.1,0,0.1-0.1,0.1L59,45c-0.1,0-0.1,0-0.1,0L58.5,44.8z"/>
			<path class="st0" d="M60.7,46.1c0,1,0.5,2.1,1.7,2.1c0.5,0,0.8-0.2,1-0.3l0.1,0.3l-1.2,0.6h-0.3c-0.2,0-1,0.1-1.7-0.7
				c-0.3-0.3-0.6-1-0.6-1.7c0-1,0.6-2.3,2.1-2.3c1,0,1.7,0.7,1.7,1.8v0.2H60.7z M62.4,45.8c0.2,0,0.4-0.1,0.4-0.5c0-0.6-0.4-1-0.9-1
				c-0.6,0-1.2,0.4-1.2,1.5H62.4z"/>
			<path class="st0" d="M64.5,47.4h0.2c0,0.6,0.5,0.9,1,0.9c0.5,0,0.8-0.4,0.8-0.8c0-0.6-0.5-0.8-1-1.2c-0.7-0.5-1-0.7-1-1.3
				c0-0.7,0.7-1.2,1.4-1.2c0.3,0,0.6,0,1,0.2V45h-0.2c0-0.3-0.3-0.7-0.8-0.7c-0.4,0-0.7,0.2-0.7,0.6c0,0.4,0.5,0.7,1.1,1.1
				c0.8,0.6,0.9,0.9,0.9,1.3c0,0.9-0.8,1.3-1.6,1.3c-0.5,0-0.9-0.1-1.2-0.2V47.4z"/>
			<path class="st0" d="M70.9,44.5l-0.4,0.2h-1V47c0,0.3,0,1.1,0.6,1.1c0.2,0,0.5,0,0.7-0.1l0.1,0.2l-1,0.4c-0.6,0-1.1-0.2-1.1-1.4
				v-2.5H68v-0.4h0.7v-0.9c0.2-0.2,0.3-0.3,0.6-0.5h0.2v1.4h1.4V44.5z"/>
			<path class="st0" d="M74.9,45c0.3-0.6-0.2-0.7-0.7-0.7v-0.2h1.8v0.2c-0.4,0-0.6,0.4-0.8,0.8l-2.4,5.1c-0.2,0.3-0.3,0.6-0.6,0.6
				h-0.7c-0.1,0-0.1-0.1-0.1-0.2v-0.2c0-0.1,0-0.1,0.1-0.2l0.5-0.2c0.3-0.1,0.6-0.3,0.7-0.6l0.5-1L71.9,45c-0.2-0.5-0.4-0.7-0.7-0.7
				v-0.2h2.3v0.2c-0.5,0-0.9-0.1-0.7,0.6l1.1,2.6L74.9,45z"/>
			<path class="st0" d="M80.8,47.4c0,0.8,0,0.8,0.8,0.9v0.2h-2.4v-0.2c0.8-0.1,0.8-0.1,0.8-0.9v-4c0-0.8,0-0.8-0.8-0.9v-0.2h2.4v0.2
				c-0.8,0.1-0.8,0.1-0.8,0.9V47.4z"/>
			<path class="st0" d="M83.8,47.4c0,0.8,0,0.8,0.7,0.9v0.2h-2.2v-0.2c0.8-0.1,0.7-0.1,0.7-0.9V45c0-0.4-0.3-0.4-0.7-0.4v-0.2
				c0.5,0,1.1-0.1,1.5-0.4l0,0v0.8c0.4-0.4,1-0.8,1.8-0.8c1.1,0,1.3,0.6,1.3,1.6v1.9c0,0.8,0,0.8,0.7,0.9v0.2h-2.2v-0.2
				c0.8-0.1,0.7-0.1,0.7-0.9v-1.6c0-0.6,0-1.3-1-1.3c-1.1,0-1.3,1-1.3,1.9V47.4z"/>
			<path class="st0" d="M88.4,47.4h0.2c0,0.6,0.5,0.9,1,0.9c0.5,0,0.8-0.4,0.8-0.8c0-0.6-0.5-0.8-1-1.2c-0.7-0.5-1-0.7-1-1.3
				c0-0.7,0.7-1.2,1.4-1.2c0.3,0,0.6,0,1,0.2V45h-0.2c0-0.3-0.3-0.7-0.8-0.7c-0.4,0-0.7,0.2-0.7,0.6c0,0.4,0.5,0.7,1.1,1.1
				c0.8,0.6,0.9,0.9,0.9,1.3c0,0.9-0.8,1.3-1.6,1.3c-0.5,0-0.9-0.1-1.2-0.2V47.4z"/>
			<path class="st0" d="M94.8,44.5l-0.4,0.2h-1V47c0,0.3,0,1.1,0.6,1.1c0.2,0,0.5,0,0.7-0.1l0.1,0.2l-1,0.4c-0.6,0-1.1-0.2-1.1-1.4
				v-2.5h-0.7v-0.4h0.7v-0.9c0.2-0.2,0.3-0.3,0.6-0.5h0.2v1.4h1.4V44.5z"/>
			<path class="st0" d="M96.9,44v3.4c0,0.8,0,0.8,0.7,0.9v0.2h-2.2v-0.2c0.8-0.1,0.7-0.1,0.7-0.9V45c0-0.4-0.3-0.4-0.7-0.4v-0.2
				C95.8,44.3,96.4,44.2,96.9,44L96.9,44z M96.4,42.4c0.3,0,0.5,0.2,0.5,0.5c0,0.3-0.2,0.5-0.5,0.5c-0.3,0-0.5-0.2-0.5-0.5
				C95.8,42.6,96.1,42.4,96.4,42.4z"/>
			<path class="st0" d="M101,44.5l-0.4,0.2h-1V47c0,0.3,0,1.1,0.6,1.1c0.2,0,0.5,0,0.7-0.1l0.1,0.2l-1,0.4c-0.6,0-1.1-0.2-1.1-1.4
				v-2.5h-0.7v-0.4h0.7v-0.9c0.2-0.2,0.3-0.3,0.6-0.5h0.2v1.4h1.4V44.5z"/>
			<path class="st0" d="M105.3,48.6c-0.1-0.2-0.2-0.4-0.2-0.7l-0.8,0.5c-0.4,0.2-0.6,0.2-0.8,0.2c-1,0-1.3-0.7-1.3-1.7V45
				c0-0.4-0.3-0.4-0.7-0.4v-0.2c0.5,0,1.1-0.1,1.5-0.4l0,0v2.8c0,0.7,0.1,1.3,0.9,1.3c0.8,0,1.2-0.4,1.2-1.8V45
				c0-0.4-0.3-0.4-0.7-0.4v-0.2c0.5,0,1.1-0.1,1.5-0.4l0,0v3.4c0,0.5,0,0.8,0.6,0.6l0.1,0.2L105.3,48.6z"/>
			<path class="st0" d="M110,44.5l-0.4,0.2h-1V47c0,0.3,0,1.1,0.6,1.1c0.2,0,0.5,0,0.7-0.1l0.1,0.2l-1,0.4c-0.6,0-1.1-0.2-1.1-1.4
				v-2.5h-0.7v-0.4h0.7v-0.9c0.2-0.2,0.3-0.3,0.6-0.5h0.2v1.4h1.4V44.5z"/>
			<path class="st0" d="M111.4,46.1c0,1,0.5,2.1,1.7,2.1c0.5,0,0.8-0.2,1-0.3l0.1,0.3l-1.2,0.6h-0.3c-0.2,0-1,0.1-1.7-0.7
				c-0.3-0.3-0.6-1-0.6-1.7c0-1,0.6-2.3,2.1-2.3c1,0,1.7,0.7,1.7,1.8v0.2H111.4z M113.1,45.8c0.2,0,0.4-0.1,0.4-0.5
				c0-0.6-0.4-1-0.9-1c-0.6,0-1.2,0.4-1.2,1.5H113.1z"/>
			<path class="st0" d="M117.7,46.3c0-1.2,0.9-2.4,2.4-2.4c1.1,0,2.2,0.8,2.2,2.3c0,1.3-1,2.4-2.4,2.4
				C118.8,48.6,117.7,47.9,117.7,46.3z M121.4,46.3c0-1-0.4-2-1.5-2c-0.8,0-1.4,0.6-1.4,2c0,1.1,0.5,2,1.5,2
				C120.8,48.3,121.4,47.7,121.4,46.3z"/>
			<path class="st0" d="M125.8,44.5l-0.4,0.2h-0.9v2.7c0,0.3,0,0.4,0,0.6c0,0.2,0.4,0.2,0.9,0.2v0.2H123v-0.2
				c0.8-0.1,0.7-0.1,0.7-0.9v-2.7h-0.6v-0.4h0.6v-0.7c0-0.6,0.3-0.9,0.6-1.1c0.2-0.1,0.6-0.4,0.9-0.5c0.1,0,0.3,0,0.4,0l0.4,0.4
				c0.1,0.1,0,0.1,0,0.1l-0.1,0.2c0,0-0.1,0-0.2,0l-0.3-0.1c-0.2-0.1-0.4-0.2-0.5-0.2c-0.3,0-0.3,0.3-0.3,0.7v1.2h1.2V44.5z"/>
			<path class="st0" d="M128.9,48.3c0.8-0.1,0.8-0.1,0.8-0.9v-4c0-0.8,0-0.8-0.8-0.9v-0.2h4v1.4h-0.2c-0.1-0.7-0.3-1.1-0.9-1.1h-1.2
				v2.5h0.7c0.6,0,0.8-0.2,0.8-0.8h0.2v1.9h-0.2c0-0.5-0.2-0.8-0.8-0.8h-0.7v2c0,0.8,0.3,0.8,1.1,0.8c1.3,0,1.2-0.4,1.6-1.3h0.2
				l-0.3,1.6h-4.4V48.3z"/>
			<path class="st0" d="M136.4,45.7l0.7-0.9c0.3-0.4,0.3-0.5-0.1-0.5v-0.2h1.5v0.2c-0.4,0-0.6,0.1-1,0.6l-0.9,1.1l1.3,1.9
				c0.2,0.3,0.4,0.4,0.8,0.4v0.2h-2.1v-0.2c0.4,0,0.4-0.2,0.1-0.7l-0.7-1l-0.7,0.9c-0.5,0.6-0.4,0.8,0.1,0.8v0.2h-1.6v-0.2
				c0.4,0,0.6-0.2,1-0.7l1-1.4l-0.9-1.4c-0.2-0.4-0.5-0.5-0.8-0.5v-0.2h2.1v0.2c-0.5,0-0.5,0.2-0.2,0.6L136.4,45.7z"/>
			<path class="st0" d="M140.2,46.1c0,1,0.5,2.1,1.7,2.1c0.5,0,0.8-0.2,1-0.3l0.1,0.3l-1.2,0.6h-0.3c-0.2,0-1,0.1-1.7-0.7
				c-0.3-0.3-0.6-1-0.6-1.7c0-1,0.6-2.3,2.1-2.3c1,0,1.7,0.7,1.7,1.8v0.2H140.2z M141.8,45.8c0.2,0,0.4-0.1,0.4-0.5
				c0-0.6-0.4-1-0.9-1c-0.6,0-1.2,0.4-1.2,1.5H141.8z"/>
			<path class="st0" d="M147.6,48.1l-1.2,0.6c-0.2,0-1.3,0.1-2-0.7c-0.3-0.3-0.6-1-0.6-1.7c0-1.4,1.1-2.3,2.4-2.3
				c0.3,0,0.8,0.1,1.1,0.2l0.3,0.6c0,0,0,0.1,0,0.1l-0.3,0.2c0,0-0.1,0-0.1,0l-0.5-0.5c-0.1-0.1-0.4-0.3-0.7-0.3
				c-0.5,0-1.3,0.4-1.3,1.7c0,0.9,0.4,2.1,1.7,2.1c0.5,0,0.8-0.2,1-0.3L147.6,48.1z"/>
			<path class="st0" d="M151.8,48.6c-0.1-0.2-0.2-0.4-0.2-0.7l-0.8,0.5c-0.4,0.2-0.6,0.2-0.8,0.2c-1,0-1.3-0.7-1.3-1.7V45
				c0-0.4-0.3-0.4-0.7-0.4v-0.2c0.5,0,1.1-0.1,1.5-0.4l0,0v2.8c0,0.7,0.1,1.3,0.9,1.3c0.8,0,1.2-0.4,1.2-1.8V45
				c0-0.4-0.3-0.4-0.7-0.4v-0.2c0.5,0,1.1-0.1,1.5-0.4l0,0v3.4c0,0.5,0,0.8,0.6,0.6l0.1,0.2L151.8,48.6z"/>
			<path class="st0" d="M156.5,44.5l-0.4,0.2h-1V47c0,0.3,0,1.1,0.6,1.1c0.2,0,0.5,0,0.7-0.1l0.1,0.2l-1,0.4c-0.6,0-1.1-0.2-1.1-1.4
				v-2.5h-0.7v-0.4h0.7v-0.9c0.2-0.2,0.3-0.3,0.6-0.5h0.2v1.4h1.4V44.5z"/>
			<path class="st0" d="M158.6,44v3.4c0,0.8,0,0.8,0.7,0.9v0.2h-2.2v-0.2c0.8-0.1,0.7-0.1,0.7-0.9V45c0-0.4-0.3-0.4-0.7-0.4v-0.2
				C157.6,44.3,158.2,44.2,158.6,44L158.6,44z M158.1,42.4c0.3,0,0.5,0.2,0.5,0.5c0,0.3-0.2,0.5-0.5,0.5c-0.3,0-0.5-0.2-0.5-0.5
				C157.6,42.6,157.8,42.4,158.1,42.4z"/>
			<path class="st0" d="M162.3,47.5l1.1-2.5c0.3-0.6-0.2-0.7-0.7-0.7v-0.2h1.8v0.2c-0.4,0-0.6,0.4-0.8,0.8l-1.6,3.4h-0.3l-1.5-3.5
				c-0.1-0.3-0.3-0.7-0.7-0.7v-0.2h2.3v0.2c-0.4,0-0.9,0.1-0.7,0.5L162.3,47.5z"/>
			<path class="st0" d="M165.9,46.1c0,1,0.5,2.1,1.7,2.1c0.5,0,0.8-0.2,1-0.3l0.1,0.3l-1.2,0.6h-0.3c-0.2,0-1,0.1-1.7-0.7
				c-0.3-0.3-0.6-1-0.6-1.7c0-1,0.6-2.3,2.1-2.3c1,0,1.7,0.7,1.7,1.8v0.2H165.9z M167.6,45.8c0.2,0,0.4-0.1,0.4-0.5
				c0-0.6-0.4-1-0.9-1c-0.6,0-1.2,0.4-1.2,1.5H167.6z"/>
			<path class="st0" d="M172.2,48.3c0.8-0.1,0.8-0.1,0.8-0.9v-4c0-0.8,0-0.8-0.8-0.9v-0.2h4v1.4H176c-0.1-0.7-0.3-1.1-0.9-1.1h-1.2
				v2.5h0.7c0.6,0,0.8-0.2,0.8-0.8h0.2v1.9h-0.2c0-0.5-0.2-0.8-0.8-0.8h-0.7v2c0,0.8,0.3,0.8,1.1,0.8c1.3,0,1.2-0.4,1.6-1.3h0.2
				l-0.3,1.6h-4.4V48.3z"/>
			<path class="st0" d="M181,48.6c-0.1-0.2-0.2-0.4-0.2-0.6l-0.6,0.4c-0.3,0.2-0.5,0.3-0.7,0.3c-1.5,0-2.1-1.3-2.1-2.3
				c0-1.6,1.2-2.4,2.4-2.4c0.3,0,0.7,0,1,0.2v-1.2c0-0.2-0.1-0.4-0.3-0.4h-0.4v-0.2c0.5,0,1.1-0.1,1.5-0.3l0,0v5.4
				c0,0.5,0,0.8,0.6,0.6l0.1,0.2L181,48.6z M180.8,44.8c-0.2-0.4-0.6-0.5-1.1-0.5c-1,0-1.4,1-1.4,1.7c0,0.9,0.4,2.1,1.5,2.1
				c0.5,0,1-0.4,1-0.8V44.8z"/>
			<path class="st0" d="M186.5,48.6c-0.1-0.2-0.2-0.4-0.2-0.7l-0.8,0.5c-0.4,0.2-0.6,0.2-0.8,0.2c-1,0-1.3-0.7-1.3-1.7V45
				c0-0.4-0.3-0.4-0.7-0.4v-0.2c0.5,0,1.1-0.1,1.5-0.4l0,0v2.8c0,0.7,0.1,1.3,0.9,1.3c0.8,0,1.2-0.4,1.2-1.8V45
				c0-0.4-0.3-0.4-0.7-0.4v-0.2c0.5,0,1.1-0.1,1.5-0.4l0,0v3.4c0,0.5,0,0.8,0.6,0.6l0.1,0.2L186.5,48.6z"/>
			<path class="st0" d="M192.2,48.1l-1.2,0.6c-0.2,0-1.3,0.1-2-0.7c-0.3-0.3-0.6-1-0.6-1.7c0-1.4,1.1-2.3,2.4-2.3
				c0.3,0,0.8,0.1,1.1,0.2l0.3,0.6c0,0,0,0.1,0,0.1l-0.3,0.2c0,0-0.1,0-0.1,0l-0.5-0.5c-0.1-0.1-0.4-0.3-0.7-0.3
				c-0.5,0-1.3,0.4-1.3,1.7c0,0.9,0.4,2.1,1.7,2.1c0.5,0,0.8-0.2,1-0.3L192.2,48.1z"/>
			<path class="st0" d="M195.5,48.6c-0.1-0.2-0.2-0.4-0.2-0.7l-0.7,0.5c-0.2,0.1-0.5,0.2-0.7,0.2c-0.6,0-1.1-0.5-1.1-1.2
				c0-0.8,0.5-1.1,1.5-1.5l1-0.4c0-0.8-0.2-1.3-0.8-1.3c-0.5,0-0.7,0.5-0.9,0.8c0,0-0.1,0-0.1,0l-0.3-0.1c-0.1,0-0.1-0.1-0.1-0.1
				l0.1-0.5c0.1-0.2,0.2-0.2,0.3-0.3c0.4-0.2,0.7-0.2,1.1-0.2c1,0,1.5,0.5,1.5,1.4v2c0,0.5,0,0.8,0.6,0.6l0.1,0.2L195.5,48.6z
				 M195.3,45.9c-0.8,0.3-1.7,0.5-1.7,1.4c0,0.4,0.3,0.8,0.7,0.8c0.5,0,1-0.3,1-1.5V45.9z"/>
			<path class="st0" d="M200.2,44.5l-0.4,0.2h-1V47c0,0.3,0,1.1,0.6,1.1c0.2,0,0.5,0,0.7-0.1l0.1,0.2l-1,0.4c-0.6,0-1.1-0.2-1.1-1.4
				v-2.5h-0.7v-0.4h0.7v-0.9c0.2-0.2,0.3-0.3,0.6-0.5h0.2v1.4h1.4V44.5z"/>
			<path class="st0" d="M202.3,44v3.4c0,0.8,0,0.8,0.7,0.9v0.2h-2.2v-0.2c0.8-0.1,0.7-0.1,0.7-0.9V45c0-0.4-0.3-0.4-0.7-0.4v-0.2
				C201.3,44.3,201.9,44.2,202.3,44L202.3,44z M201.8,42.4c0.3,0,0.5,0.2,0.5,0.5c0,0.3-0.2,0.5-0.5,0.5c-0.3,0-0.5-0.2-0.5-0.5
				C201.3,42.6,201.5,42.4,201.8,42.4z"/>
			<path class="st0" d="M203.7,46.3c0-1.2,0.9-2.4,2.4-2.4c1.1,0,2.2,0.8,2.2,2.3c0,1.3-1,2.4-2.4,2.4
				C204.8,48.6,203.7,47.9,203.7,46.3z M207.4,46.3c0-1-0.4-2-1.5-2c-0.8,0-1.4,0.6-1.4,2c0,1.1,0.5,2,1.5,2
				C206.8,48.3,207.4,47.7,207.4,46.3z"/>
			<path class="st0" d="M210.5,47.4c0,0.8,0,0.8,0.7,0.9v0.2H209v-0.2c0.8-0.1,0.7-0.1,0.7-0.9V45c0-0.4-0.3-0.4-0.7-0.4v-0.2
				c0.5,0,1.1-0.1,1.5-0.4l0,0v0.8c0.4-0.4,1-0.8,1.8-0.8c1.1,0,1.3,0.6,1.3,1.6v1.9c0,0.8,0,0.8,0.7,0.9v0.2h-2.2v-0.2
				c0.8-0.1,0.7-0.1,0.7-0.9v-1.6c0-0.6,0-1.3-1-1.3c-1.1,0-1.3,1-1.3,1.9V47.4z"/>
		</g>
	</g>
</g>
</svg>
